<?xml version="1.0" encoding="UTF-8"?>
<!DOCTYPE svg PUBLIC "-//W3C//DTD SVG 1.1//EN" "http://www.w3.org/Graphics/SVG/1.1/DTD/svg11.dtd">
<!-- Creator: CorelDRAW -->
<svg xmlns="http://www.w3.org/2000/svg" xml:space="preserve" width="624.383mm" height="559.613mm" version="1.1" style="shape-rendering:geometricPrecision; text-rendering:geometricPrecision; image-rendering:optimizeQuality; fill-rule:evenodd; clip-rule:evenodd"
viewBox="0 0 62438.28 55961.28"
 xmlns:xlink="http://www.w3.org/1999/xlink"
 xmlns:xodm="http://www.corel.com/coreldraw/odm/2003">
 <defs>
  <style type="text/css">
   <![CDATA[
    .fil0 {fill:#FEFEFE}
    .fil1 {fill:#FEFEFE;fill-rule:nonzero}
   ]]>
  </style>
 </defs>
 <g id="Layer_x0020_1">
  <metadata id="CorelCorpID_0Corel-Layer"/>
  <g id="_2790774502608">
   <path class="fil0" d="M25637.48 33402.79l0 -3611.48c56.59,-24.49 92.01,1.56 126.96,21.27 992.8,560.69 2051.3,965.13 3129.06,1326.83 928.47,311.68 1878.48,538.61 2833.06,748.32 647.21,142.19 1299.48,260.59 1946.42,403.59 730.55,161.51 1435.97,399.16 2102.13,744.87 399.11,207.07 772.33,452.15 1106.51,754.24 228.72,206.7 425.82,439.5 600.37,694.32 150.97,220.37 222.42,461.14 226.62,723.67 4.25,265.26 2.42,530.7 0.8,796.02 -0.8,112.47 -10.01,129.05 -113.49,162.06 -291.81,93.03 -584.06,185.53 -878.13,271.35 -916.52,267.58 -1850.48,454.41 -2797.63,568.76 -997.33,120.44 -1998.21,162.55 -3003.46,123.19 -2664.7,-104.34 -5189.68,-749.13 -7572.58,-1943.51 -4625.18,-2318.19 -8073.57,-6445.72 -9533.65,-11406.58 -264.68,-899.4 -453.07,-1815.21 -578.78,-2745.03 -165.07,-1220.76 -206.69,-2446.16 -124.43,-3672.96 210.52,-3136.98 1137.64,-6049.77 2836.78,-8696.92 2502.8,-3899.09 5978.49,-6534.39 10411.94,-7894.82 1008.04,-309.25 2038.97,-514.38 3086.85,-636.49 833.18,-97.02 1668.39,-150.11 2506.74,-129.92 4009.83,96.59 7630.4,1339.38 10837,3745.59 2926.58,2196.13 5024.23,5022.83 6296.9,8457.12 71.99,194.15 146.45,387.38 216.98,582.01 46.14,127.22 32.14,146.98 -94.01,150.65 -33.16,0.91 -66.33,0.32 -99.55,0.32 -1384.81,0 -2769.63,0.11 -4154.45,-0.11 -226.61,-0.05 -224.99,-1.45 -309.85,-222.74 -1271.75,-3315.56 -3508.69,-5755.11 -6678.14,-7343.49 -1208.22,-605.48 -2484.55,-1008.96 -3816.17,-1235.14 -1043.09,-177.14 -2095.72,-233.94 -3148.18,-146.39 -3969.35,330.31 -7204.16,2072.4 -9701.68,5159.31 -1302.34,1609.66 -2140.95,3457.77 -2585.88,5482.15 -225.27,1025.05 -308.07,2062.23 -304.09,3111.03 8.83,2355.01 2.85,4710.13 2.85,7065.09 0,630.25 1.4,1260.5 -1.23,1890.75 -0.44,110.64 17.44,207.01 81.13,303.17 782.51,1180.92 1686.11,2257.35 2744.28,3201.81 433.46,386.84 884.21,752.09 1357.79,1088.53 946.02,672.3 1893.81,1341.85 2841.88,2011.35 52.17,36.88 97.07,90.02 202.33,98.21zm15322.19 -5764.05c14.27,-80.65 68.97,-110.16 109.62,-149.3 857.78,-825.26 1615.36,-1733.97 2258.48,-2735.71 75.21,-117.05 157.32,-145.16 283.63,-144.62 928.52,3.83 1856.94,2.05 2785.46,2.05 853.85,0 1707.8,-0.22 2561.6,0.27 74.24,0.11 148.76,3.07 222.89,7.59 29.51,1.78 39.52,28.86 37.8,52.98 -1.78,23.85 -11.95,47.81 -21.38,70.42 -455.8,1084.39 -914.9,2166.68 -1513.76,3183.61 -722.21,1226.47 -1564.91,2361.47 -2541.51,3396.97 -45.39,48.24 -91.05,96.49 -138.75,142.52 -49.91,48.13 -77.53,45.22 -120.55,-9.64 -20.51,-26.06 -38.71,-53.78 -57.77,-80.87 -1000.45,-1417.49 -2229.51,-2601.92 -3655.62,-3585.41 -73.06,-50.4 -144.24,-103.48 -210.14,-150.86z"/>
   <path class="fil1" d="M23731.33 29779.63c-129.54,-53.36 -223.32,-134.49 -320.45,-207.23 -759.25,-568.82 -1443.67,-1219.74 -2078.49,-1922.52 -338.98,-375.31 -643.93,-779.27 -941.07,-1188.67 -80.81,-111.24 -131.21,-228.77 -119.31,-369.4 4.79,-57.61 0.75,-116.02 0.75,-174.12 -0.64,-2794.67 -5.7,-5589.44 2.91,-8384.16 1.29,-420.87 27.95,-843.25 70.42,-1264.38 102.3,-1012.46 344.36,-1989.39 705.9,-2937.67 446.44,-1171.29 1065.06,-2246.25 1862.75,-3212.52 846.15,-1024.89 1841.22,-1884.34 2976.06,-2577.05 1061.72,-648.01 2197.91,-1122.13 3410,-1405.92 442.94,-103.75 892.24,-176.11 1345.09,-231.83 296.92,-36.56 595.95,-24.34 891.37,-70.53 108.11,-16.91 145.26,25.46 151.77,141.87 2.32,41.29 0.92,82.91 0.92,124.37 0,870.75 -1.19,1741.5 0.65,2612.31 0.53,282.82 -10.5,271.51 -271.3,286.91 -681.72,40.17 -1344.23,181.07 -1991.17,398.04 -1001.63,335.96 -1905.82,843.51 -2714.87,1524.1 -848.84,714.08 -1527.66,1563.57 -2036.23,2547.17 -379.03,732.97 -640.91,1508.21 -786.22,2321.57 -59.82,334.57 -95.95,671.23 -112.85,1011.28 -10.98,223.27 -31.61,446.12 -25.84,670.04 39.41,1548.38 370.95,3021.17 1140.32,4379.01 253.86,448 548.1,867.9 881.74,1261.53 958.3,1130.31 2150.64,1933.17 3498.63,2522.02 1006.96,439.87 2055.17,741.59 3134.34,939.29 553.53,101.38 1110.29,185.91 1661.99,296.17 1254.41,250.74 2473.62,617.39 3646.63,1133.17 791.39,347.86 1547.84,757.91 2267.3,1236.7 895.09,595.74 1701.51,1295.12 2421.29,2092.38 512.13,567.26 973.91,1174.36 1347.02,1843.43 308.99,554.12 518.37,1146.09 629.61,1771.6 4.3,24.45 5.65,49.43 8.07,74.25 23.31,243.52 18.15,250.89 -228.39,251 -1451.25,0.59 -2902.61,0.27 -4353.87,0.11 -49.64,0 -99.6,0 -148.92,-4.42 -46.3,-4.09 -75.81,-32.73 -79.63,-79.36 -5.33,-66.06 -5.76,-132.39 -9.21,-198.61 -21.26,-410.86 -114.51,-803.51 -309.04,-1167.63 -295.96,-553.9 -683.76,-1034 -1154.81,-1450.93 -827.73,-732.76 -1791.2,-1216.78 -2827.51,-1572.18 -627.94,-215.41 -1272.02,-368.05 -1923.75,-490.16 -683.72,-128.08 -1360.59,-286.21 -2039.03,-438.42 -720.92,-161.79 -1425.52,-374.13 -2124.41,-608.6 -605.11,-203.09 -1199.5,-433.79 -1778.07,-705.36 -738.68,-346.62 -1425.84,-775.3 -2075.63,-1267.39 -370.85,-280.89 -719.52,-586.75 -1048.59,-914.37 -158.24,-157.69 -299.51,-332.51 -448.22,-499.63 -17.12,-19.11 -36.61,-35.7 -61.81,-18.68 -11.36,7.64 -21.86,25.3 -22.39,38.82 -3.07,74.51 -3.93,149.13 -3.93,223.75 -0.11,1136.13 0.21,2272.32 -0.65,3408.45 0,79.14 11.74,160.82 -19.87,252.4z"/>
   <path class="fil1" d="M37284.94 26599.04c45.22,-87.22 127.71,-113.82 197.97,-155.06 973.96,-572 1825.66,-1293.78 2568.65,-2140.03 992.37,-1130.32 1705.86,-2420.54 2149.72,-3858.76 166.36,-539.05 278.67,-1089.08 362.23,-1647.13 109.62,-733.83 124.91,-1471.28 76.62,-2207.16 -75.33,-1148.41 -340.38,-2257.24 -786.23,-3320.58 -426.25,-1016.66 -994.31,-1945.88 -1710.87,-2784.65 -804.58,-941.93 -1741.24,-1722.24 -2816.15,-2339.73 -1045.46,-600.47 -2162.91,-999.59 -3344.32,-1223.56 -267.96,-50.83 -540.71,-76.45 -811.31,-113.01 -107.36,-14.48 -124.64,-28.75 -125.99,-142.35 -2.74,-215.58 -2.69,-431.21 -0.48,-646.78 1.24,-121.04 12.38,-129.11 127.97,-117.59 702.13,69.94 1391.12,205.88 2067.62,407.03 724.79,215.41 1425.68,490.64 2095.93,840.28 855.41,446.28 1652.46,977.41 2378.87,1617.08 1186.57,1044.87 2118.06,2279.42 2796.66,3704.62 411.28,863.7 710.14,1765.95 888.84,2707.28 112.9,594.77 197.81,1192.07 205.24,1798.96 2.2,173.69 32.95,347.97 23.69,520.58 -27.09,503.94 -48.19,1007.66 -116.57,1509.72 -110.15,808.3 -301.23,1594.47 -581.58,2358.35 -428.4,1167.14 -1016.76,2247.06 -1777.41,3233.41 -538.62,698.47 -1144.85,1332.81 -1792.71,1928.17 -255.9,235.28 -531.56,448.97 -797.05,674.02 -58.14,49.32 -110.48,58.15 -178.26,14.48 -328.1,-211.21 -673.7,-390.66 -1025.22,-559.39 -28.1,-13.62 -50.83,-38.71 -75.86,-58.2z"/>
   <path class="fil1" d="M33366.26 25444.87c294.5,-67.95 562.62,-120.17 825.15,-192.15 1034.42,-283.36 1983.73,-743.8 2838.54,-1393.38 1173.61,-891.7 2053.62,-2015.39 2637.35,-3368.5 270.06,-626.21 447.14,-1279.18 559.13,-1953.04 108.11,-651.03 121.46,-1305.02 74.24,-1957.78 -52.06,-720.43 -207.44,-1424.01 -453.49,-2106.16 -364.33,-1010.47 -906.34,-1912.88 -1617.03,-2717.57 -751.82,-851.21 -1646.21,-1509.73 -2668.2,-1997.68 -661.47,-315.88 -1356.33,-530.21 -2077.79,-658.73 -105.9,-18.84 -212.39,-34.03 -318.67,-51.2 -98.05,-15.88 -117.43,-32.36 -119.69,-123.3 -3.07,-124.31 -2.53,-248.74 0.81,-373.05 2.1,-74.79 32.46,-104.02 110.96,-96.21 156.35,15.56 313.19,32.3 467.55,60.62 918.78,168.41 1796.37,459.63 2622.05,898.59 594.72,316.2 1146.42,695.83 1659.51,1133.49 699.87,597.03 1286.72,1289.57 1773.49,2067.72 581.79,930.03 971.43,1934.36 1187.12,3011.21 167.87,837.27 188.33,1680.89 127.33,2524.56 -64.18,888.63 -287.29,1746.19 -627.13,2571.98 -365.79,889.01 -863.48,1696.34 -1487.22,2427.38 -1017.52,1192.66 -2268.17,2049.63 -3731.64,2602.73 -111.99,42.26 -217.14,50.44 -336.34,18.41 -399.66,-107.47 -803.99,-196.46 -1212.59,-264.84 -69.66,-11.63 -137.07,-36.61 -233.44,-63.1z"/>
   <path class="fil1" d="M41503.51 17313.21c-22.99,-1331.73 -280.02,-2611.18 -830.1,-3830.92 -543.25,-1204.35 -1305.51,-2246.42 -2279.58,-3133.27 -553.32,-503.67 -1161.76,-932.29 -1821.35,-1289.68 -718.17,-389.21 -1472.04,-681.45 -2264.56,-874.63 -337.85,-82.27 -678.82,-149.68 -1025.22,-185.75 -8.24,-0.91 -16.48,-1.18 -24.77,-2.26 -204.59,-27.08 -212.08,-35.16 -213.8,-249.71 -0.91,-107.73 -1.72,-215.63 1.83,-323.31 2.64,-78.28 32.68,-100.79 112.47,-90.61 451.67,57.61 900.74,129.97 1343.31,239.1 710.69,175.25 1393.54,428.73 2047.58,754.68 706.81,352.27 1363.98,783.26 1970.06,1291.94 871.45,731.2 1602.55,1582.19 2190.75,2555.03 452.41,748.37 795.97,1545.42 1039.38,2385.43 126.79,437.82 220.85,883.24 288.58,1333.5 34.51,228.77 46.62,460.98 67.94,691.74 25.04,272.21 44.05,544.48 39.04,818.53 -25.31,1365.16 -290.04,2677.83 -834.63,3933.76 -405.52,935.52 -939.07,1790.82 -1606.63,2557.88 -767.01,881.52 -1649.23,1629.73 -2675.79,2198.93 -108.65,60.19 -218.86,117.75 -325.63,181.11 -79.04,46.95 -152.15,42.48 -236.3,10.18 -200.88,-77.26 -405.15,-145.64 -607.96,-218 -22.35,-7.91 -53.63,-15.5 -43.4,-46.46 6.3,-19.33 28.11,-39.04 47.87,-47.65 547.66,-241.36 1068.13,-531.61 1559.36,-872.96 1160.79,-806.9 2099.49,-1819.68 2811.63,-3042.17 543.35,-932.78 907.09,-1932.37 1108.08,-2990.59 63.21,-332.79 108.59,-669.23 127.22,-1009.45 13.68,-247.98 41.73,-495.05 34.62,-744.39z"/>
   <path class="fil1" d="M12603.27 51849.65l-977.7 0 0 3188.53 977.7 0c935.64,0 1615.58,-672.29 1615.58,-1596.45 0,-922.25 -677.76,-1592.08 -1615.58,-1592.08l0 0zm-6.28 2971.36l-743.59 0 0 -2754.19 743.59 0c809.7,0 1389.39,579.42 1389.39,1374.91 0,797.41 -582.69,1379.28 -1389.39,1379.28zm2259.73 -2751.18l279.46 0 0 -314.43 -279.46 0 0 314.43zm28.96 2969.17l222.37 0 0 -2461.06 -222.37 0 0 2461.06zm3142.37 -2461.06l-35.79 524.23c-207.34,-349.39 -584.05,-573.67 -1032.89,-573.67 -679.12,0 -1202.53,528.05 -1202.53,1214 0,688.14 521.23,1211.55 1202.53,1211.55 432.99,0 796.59,-203.8 1007.21,-527.24l0 281.1c0,656.18 -372.34,1046.55 -958.58,1046.55 -423.15,0 -757.52,-205.71 -891.93,-572.58l-223.18 0c146.42,488.99 547.72,778.55 1115.11,778.55 732.12,0 1177.13,-483.25 1177.13,-1277.65l0 -2104.84 -157.08 0zm-1047.37 2161.66c-569.85,0 -996.83,-429.71 -996.83,-997.1 0,-568.21 426.98,-999.56 996.83,-999.56 566.57,0 984.26,424.52 984.26,999.56 0,574.22 -415.5,997.1 -984.26,997.1l0 0zm2037.09 -2669.77l279.46 0 0 -314.43 -279.46 0 0 314.43zm28.96 2969.17l222.37 0 0 -2461.06 -222.37 0 0 2461.06zm1996.93 -208.98c-369.88,0 -576.68,-211.71 -576.68,-581.87l0 -1465.05 827.19 0 0 -205.16 -827.19 0 0 -434.35 -43.98 0 -589.52 588.7 0 50.81 410.32 0 0 1471.34c0,488.44 293.12,783.74 774.73,783.74l293.94 0 0 -208.16 -268.81 0zm2940.77 -2252.08l-31.15 536.25c-214.17,-358.41 -599.89,-585.69 -1072.49,-585.69 -719.28,0 -1260.72,548.54 -1260.72,1280.11 0,729.11 541.44,1279.84 1260.72,1279.84 471.78,0 856.14,-227.29 1071.13,-583.51l25.68 534.06 189.31 0 0 -2461.06 -182.48 0zm-1088.35 2293.88c-599.35,0 -1049,-456.48 -1049,-1063.21 0,-604.82 449.65,-1063.48 1049,-1063.48 604,0 1044.37,449.65 1044.37,1063.48 0,613.56 -440.37,1063.21 -1044.37,1063.21l0 0zm2128.34 167.18l223.46 0 0 -3331.41 -223.46 0 0 3331.41zm3608.14 -1523.78l0 218.81 1469.69 0c-88.78,670.11 -619.02,1124.95 -1328.46,1124.95 -805.06,0 -1367.26,-582.69 -1367.26,-1412.06 0,-821.17 575.86,-1415.88 1367.26,-1415.88 621.48,0 1149.26,374.53 1285.85,909.95l236.3 0c-139.05,-661.63 -773.92,-1134.78 -1526.8,-1134.78 -917.33,0 -1595.63,694.42 -1595.63,1640.71 0,944.92 663.82,1636.89 1600.28,1636.89 900.12,0 1546.46,-644.16 1574.6,-1568.59l-1715.83 0zm3376.21 1573.23c646.61,0 1055.28,-426.16 1055.28,-1083.97l0 -1426.54 -223.46 0 0 1394.58c0,552.91 -316.61,898.75 -831.82,898.75 -512.49,0 -831.56,-343.38 -831.56,-898.75l0 -1394.58 -223.46 0 0 1426.54c0,657.81 411.13,1083.97 1055.02,1083.97l0 0zm4021.18 -2510.51l-31.14 536.25c-214.17,-358.41 -599.9,-585.69 -1072.5,-585.69 -719.28,0 -1260.72,548.54 -1260.72,1280.11 0,729.11 541.44,1279.84 1260.72,1279.84 471.78,0 856.14,-227.29 1071.13,-583.51l25.68 534.06 189.31 0 0 -2461.06 -182.48 0zm-1088.34 2293.88c-599.36,0 -1049.01,-456.48 -1049.01,-1063.21 0,-604.82 449.65,-1063.48 1049.01,-1063.48 603.99,0 1044.36,449.65 1044.36,1063.48 0,613.56 -440.37,1063.21 -1044.36,1063.21l0 0zm3176.51 -2302.07c-391.19,0 -678.3,185.21 -843.02,493.63l-38.79 -485.44 -166.37 0 0 2461.06 223.46 0 0 -1369.44c0,-523.41 314.43,-887.28 808.06,-887.28l230.84 0 0 -212.53 -214.18 0zm2690.54 -863.79l0 1368.07c-219.64,-334.91 -594.71,-545.53 -1049.01,-545.53 -725.29,0 -1258.53,548.54 -1258.53,1280.11 0,729.11 533.24,1279.84 1258.53,1279.84 461.95,0 841.67,-218.82 1059.66,-563.57l33.33 514.12 178.66 0 0 -3333.04 -222.64 0zm-1033.71 3165.86c-599.35,0 -1046.82,-456.48 -1046.82,-1063.21 0,-609.19 447.47,-1063.48 1046.82,-1063.48 603.72,0 1045.73,451.83 1045.73,1063.48 0,609.73 -442.01,1063.21 -1045.73,1063.21l0 0zm2084.9 -2801.99l279.46 0 0 -314.43 -279.46 0 0 314.43zm28.95 2969.17l222.37 0 0 -2461.06 -222.37 0 0 2461.06zm3233.34 -2461.06l-31.14 536.25c-214.17,-358.41 -599.9,-585.69 -1072.5,-585.69 -719.28,0 -1260.72,548.54 -1260.72,1280.11 0,729.11 541.44,1279.84 1260.72,1279.84 471.78,0 856.14,-227.29 1071.13,-583.51l25.68 534.06 189.32 0 0 -2461.06 -182.49 0zm-1088.34 2293.88c-599.35,0 -1049,-456.48 -1049,-1063.21 0,-604.82 449.65,-1063.48 1049,-1063.48 604,0 1044.36,449.65 1044.36,1063.48 0,613.56 -440.36,1063.21 -1044.36,1063.21l0 0zm3273.77 -2343.87c-407.04,0 -757.25,216.36 -935.09,546.9l-43.98 -496.91 -166.37 0 0 2461.06 223.46 0 0 -1404.41c0,-493.63 395.56,-901.76 871.99,-901.76 495.27,0 786.75,330.55 786.75,889.47l0 1416.7 223.46 0 0 -1462.87c0,-625.3 -369.34,-1048.18 -960.22,-1048.18l0 0zm2506.68 2560.5c566.03,0 942.74,-285.75 942.74,-720.92 0,-564.38 -491.45,-649.34 -920.06,-720.1 -377.26,-62.28 -709.99,-117.74 -709.99,-451.83 0,-279.46 264.16,-465.77 669.01,-465.77 413.32,0 665.46,188.49 686.77,509.75l212.53 0c-21.03,-437.63 -361.41,-711.08 -895.48,-711.08 -530.78,0 -890.28,271.26 -890.28,673.11 0,506.74 449.92,585.69 874.44,658.63 381.9,64.47 752.06,134.4 752.06,515.76 0,308.96 -288.75,504.29 -715.73,504.29 -426.16,0 -706.44,-194.51 -738.94,-537.89l-219.64 0c33.6,461.94 389.01,746.05 952.57,746.05l0 0z"/>
   <path class="fil1" d="M4771.53 41215.91l1628.41 0 0 -1608.75 -1628.41 0c-1283.94,0 -2494.12,501.83 -3401.89,1409.6 -909.96,907.5 -1409.33,2117.68 -1409.33,3401.89 0,1283.94 499.37,2494.12 1409.33,3401.89 907.77,909.96 2117.95,1409.33 3401.89,1409.33l1628.41 0 0 -1608.75 -1628.41 0c-1766.1,0 -3202.47,-1436.37 -3202.47,-3202.47 0,-1766.37 1436.37,-3202.74 3202.47,-3202.74l0 0z"/>
   <path class="fil1" d="M14385.49 39617l0 -4.92 -1608.75 0 0 4248.2c0,368.79 -290.11,639.51 -462.22,767.35 -364.14,270.45 -878.26,428.07 -1414.51,428.07 -536.25,0 -1052.83,-157.62 -1414.25,-428.07 -172.37,-127.84 -462.49,-398.56 -462.49,-767.35l0 -4248.2 -1608.74 0 0 4248.2c0,782.11 403.48,1532.25 1109.37,2058.67 644.43,479.7 1488,745.23 2376.11,745.23 673.93,0 1323.27,-152.44 1879.19,-437.63l0 90.96c0,708.36 -578.04,1283.94 -1286.4,1283.94l-2848.43 0 0 1611.21 2848.43 0c1596.46,0 2895.15,-1298.69 2895.15,-2895.15l0 -6700.51 -2.46 0z"/>
   <path class="fil1" d="M22174.35 42423.63c0,-1544.82 -1256.9,-2801.72 -2801.72,-2801.72l-2363.81 0 0 -9.83 -1608.75 0 0 9617.79 1608.75 0 0 -9.84 2363.81 0c1544.82,0 2801.72,-1256.89 2801.72,-2801.71 0,-782.11 -322.35,-1488.28 -838.93,-1997.21 516.58,-509.2 838.93,-1215.37 838.93,-1997.48l0 0zm-2801.72 5187.66l-2363.81 0 0 -2385.94 2363.81 0c656.72,0 1192.97,536.25 1192.97,1192.97 0,656.72 -536.25,1192.97 -1192.97,1192.97l0 0zm0 -3994.69l-2363.81 0 0 -2385.94 2363.81 0c656.72,0 1192.97,536.25 1192.97,1192.97 0,656.72 -536.25,1192.97 -1192.97,1192.97l0 0z"/>
   <path class="fil1" d="M27491.49 41215.91l1628.42 0 0 -1608.75 -1628.42 0c-1283.94,0 -2494.12,501.83 -3401.89,1409.6 -909.96,907.5 -1409.33,2117.68 -1409.33,3401.89 0,1283.94 499.37,2494.12 1409.33,3401.89 907.77,909.96 2117.95,1409.33 3401.89,1409.33l1628.42 0 0 -1608.75 -1628.42 0c-1488,0 -2742.44,-1020.87 -3099.21,-2398.23l2843.51 0 0 -1608.75 -2843.51 0c356.77,-1377.36 1611.21,-2398.23 3099.21,-2398.23l0 0z"/>
   <path class="fil1" d="M34242.27 44986.86c983.99,-435.44 1672.67,-1419.43 1672.67,-2563.23 0,-1544.82 -1256.89,-2801.72 -2801.71,-2801.72l-1369.99 0 0 -9.83 -1608.75 0 0 9617.79 1608.75 0 0 -4004.52 858.32 0 1640.71 4004.52 1739.05 0 -1739.05 -4243.01zm-1129.04 -1370.26l-1369.99 0 0 -2385.94 1369.99 0c656.72,0 1192.96,536.25 1192.96,1192.97 0,656.72 -536.24,1192.97 -1192.96,1192.97l0 0z"/>
   <polygon class="fil1" points="38648.64,49229.87 38648.64,39612.08 37039.89,39612.08 37039.89,49229.87 "/>
   <polygon class="fil1" points="41275.79,49229.87 41275.79,39612.08 39667.05,39612.08 39667.05,49229.87 "/>
   <polygon class="fil1" points="48995.81,39621.91 42169.9,39621.91 42169.9,41230.66 44777.12,41230.66 44777.12,49229.87 46385.86,49229.87 46385.86,41230.66 48995.81,41230.66 "/>
   <path class="fil1" d="M53515.82 41215.91l1628.41 0 0 -1608.75 -1628.41 0c-1283.94,0 -2494.12,501.83 -3401.89,1409.6 -909.96,907.5 -1409.33,2117.68 -1409.33,3401.89 0,1283.94 499.37,2494.12 1409.33,3401.89 907.77,909.96 2117.95,1409.33 3401.89,1409.33l1628.41 0 0 -1608.75 -1628.41 0c-1488,0 -2742.44,-1020.87 -3099.21,-2398.23l2843.51 0 0 -1608.75 -2843.51 0c356.77,-1377.36 1611.21,-2398.23 3099.21,-2398.23l0 0z"/>
   <path class="fil1" d="M59649.76 43754.28c-71.3,-34.42 -142.6,-71.3 -213.9,-108.18 -1008.57,-531.33 -1315.9,-956.94 -1394.84,-1222.47 -36.88,-115.55 -63.93,-302.68 96.15,-607.55 312.25,-457.57 801.78,-565.75 1158.55,-575.58 691.14,-19.67 1431.46,319.61 1800.52,826.36l1301.15 -949.29c-683.77,-937.28 -1918.53,-1520.24 -3143.46,-1485.82 -494.46,12.29 -954.49,122.93 -1365.35,332.18 -460.03,228.65 -836.2,565.76 -1119.21,1000.93l-17.21 27.04 -14.75 27.32c-341.75,632.14 -423.15,1261.81 -238.49,1871.82 250.78,823.91 966.51,1537.45 2189.26,2181.87l9.83 4.92c76.22,36.88 149.97,76.22 223.73,113.1 602.63,304.86 1170.84,592.79 1448.94,907.5 115.55,130.57 270.45,307.59 29.5,841.38 -305.14,526.42 -819.26,666.56 -1203.07,691.15 -713.27,44.25 -1478.17,-292.58 -1861.99,-818.99l-1301.14 949.29c669.01,917.61 1839.85,1483.36 3032.82,1483.36 76.22,0 154.89,-2.46 231.38,-7.38 1099.55,-68.84 2019.34,-629.67 2523.62,-1542.36l12.3 -24.59 12.29 -24.58c582.96,-1247.06 174.56,-2108.12 -270.45,-2612.13 -482.16,-546.09 -1183.13,-902.86 -1926.18,-1279.3l0 0z"/>
  </g>
 </g>
</svg>
