<?xml version="1.0" encoding="UTF-8"?>
<!DOCTYPE svg PUBLIC "-//W3C//DTD SVG 1.1//EN" "http://www.w3.org/Graphics/SVG/1.1/DTD/svg11.dtd">
<!-- Creator: CorelDRAW -->
<svg xmlns="http://www.w3.org/2000/svg" xml:space="preserve" width="624.383mm" height="559.613mm" version="1.1" style="shape-rendering:geometricPrecision; text-rendering:geometricPrecision; image-rendering:optimizeQuality; fill-rule:evenodd; clip-rule:evenodd"
viewBox="0 0 62438.28 55961.28"
 xmlns:xlink="http://www.w3.org/1999/xlink"
 xmlns:xodm="http://www.corel.com/coreldraw/odm/2003">
 <defs>
  <style type="text/css">
   <![CDATA[
    .fil1 {fill:#00214B;fill-rule:nonzero}
    .fil2 {fill:#1172FF;fill-rule:nonzero}
    .fil0 {fill:url(#id0)}
   ]]>
  </style>
  <linearGradient id="id0" gradientUnits="userSpaceOnUse" x1="-29316.77" y1="-46206.05" x2="36713.38" y2="68161.62">
   <stop offset="0" style="stop-opacity:1; stop-color:#CBCBFF"/>
   <stop offset="0.278431" style="stop-opacity:1; stop-color:#9898FF"/>
   <stop offset="1" style="stop-opacity:1; stop-color:#000066"/>
  </linearGradient>
 </defs>
 <g id="Layer_x0020_1">
  <metadata id="CorelCorpID_0Corel-Layer"/>
  <path class="fil0" d="M22535.07 49882.09l0 -5290.62c82.9,-35.89 134.8,2.29 185.98,31.16 1454.42,821.38 3005.05,1413.87 4583.93,1943.73 1360.16,456.6 2751.86,789.05 4150.28,1096.26 948.13,208.3 1903.67,381.74 2851.4,591.23 1070.22,236.61 2103.61,584.76 3079.51,1091.2 584.68,303.34 1131.43,662.37 1620.99,1104.93 335.05,302.79 623.8,643.83 879.51,1017.14 221.16,322.82 325.82,675.54 331.97,1060.13 6.23,388.6 3.55,777.44 1.19,1166.13 -1.19,164.76 -14.68,189.06 -166.27,237.41 -427.49,136.29 -855.61,271.79 -1286.41,397.51 -1342.65,392 -2710.86,665.69 -4098.38,833.21 -1461.04,176.44 -2927.28,238.12 -4399.92,180.47 -3903.64,-152.86 -7602.61,-1097.44 -11093.44,-2847.15 -6775.63,-3396.02 -11827.35,-9442.64 -13966.3,-16710.05 -387.74,-1317.56 -663.71,-2659.19 -847.88,-4021.32 -241.82,-1788.36 -302.79,-3583.5 -182.27,-5380.69 308.39,-4595.52 1666.57,-8862.61 4155.72,-12740.54 3666.47,-5711.96 8758.18,-9572.54 15252.95,-11565.5 1476.73,-453.04 2986.99,-753.55 4522.08,-932.43 1220.56,-142.13 2444.11,-219.9 3672.24,-190.32 5874.2,141.5 11178.15,1962.11 15875.65,5487.09 4287.28,3217.22 7360.24,7358.19 9224.63,12389.24 105.45,284.42 214.53,567.49 317.86,852.62 67.59,186.37 47.08,215.32 -137.71,220.68 -48.59,1.34 -97.18,0.48 -145.84,0.48 -2028.68,0 -4057.37,0.15 -6086.05,-0.16 -331.98,-0.08 -329.61,-2.13 -453.91,-326.3 -1863.06,-4857.13 -5140.06,-8430.93 -9783.13,-10757.84 -1769.99,-887 -3639.74,-1478.07 -5590.5,-1809.41 -1528.08,-259.5 -3070.12,-342.71 -4611.92,-214.46 -5814.89,483.88 -10553.72,3035.97 -14212.46,7558.13 -1907.86,2358.06 -3136.38,5065.44 -3788.18,8031.06 -330,1501.65 -451.31,3021.06 -445.47,4557.5 12.93,3449.97 4.18,6900.09 4.18,10349.98 0,923.29 2.05,1846.57 -1.82,2769.85 -0.63,162.09 25.56,303.27 118.86,444.14 1146.34,1729.99 2470.06,3306.89 4020.22,4690.48 635.01,566.7 1295.33,1101.77 1989.09,1594.64 1385.88,984.89 2774.35,1965.75 4163.22,2946.53 76.43,54.03 142.21,131.87 296.4,143.86zm22446.22 -8444.03c20.9,-118.15 101.04,-161.37 160.58,-218.71 1256.6,-1208.96 2366.42,-2540.17 3308.56,-4007.68 110.18,-171.47 230.46,-212.64 415.5,-211.85 1360.24,5.6 2720.32,3 4080.55,3 1250.85,0 2501.85,-0.32 3752.61,0.39 108.76,0.16 217.92,4.5 326.53,11.12 43.22,2.6 57.89,42.28 55.37,77.61 -2.6,34.94 -17.51,70.04 -31.31,103.17 -667.74,1588.57 -1340.29,3174.07 -2217.59,4663.82 -1058,1796.72 -2292.51,3459.43 -3723.18,4976.39 -66.49,70.67 -133.38,141.34 -203.26,208.78 -73.11,70.51 -113.57,66.25 -176.59,-14.12 -30.05,-38.18 -56.71,-78.8 -84.63,-118.47 -1465.62,-2076.56 -3266.12,-3811.68 -5355.3,-5252.45 -107.03,-73.82 -211.3,-151.59 -307.84,-221z"/>
  <path class="fil1" d="M19742.66 44574.36c-189.76,-78.17 -327.16,-197.03 -469.45,-303.58 -1112.26,-833.29 -2114.89,-1786.87 -3044.88,-2816.39 -496.58,-549.82 -943.31,-1141.6 -1378.61,-1741.35 -118.39,-162.95 -192.21,-335.13 -174.78,-541.15 7.02,-84.39 1.1,-169.97 1.1,-255.07 -0.95,-4094.05 -8.36,-8188.25 4.26,-12282.37 1.89,-616.55 40.93,-1235.3 103.17,-1852.25 149.85,-1483.2 504.47,-2914.34 1034.1,-4303.53 654.01,-1715.87 1560.25,-3290.64 2728.83,-4706.17 1239.57,-1501.42 2697.29,-2760.47 4359.77,-3775.24 1555.37,-949.31 3219.82,-1643.87 4995.48,-2059.6 648.88,-151.99 1307.08,-258 1970.47,-339.63 434.99,-53.55 873.05,-35.65 1305.82,-103.32 158.38,-24.77 212.8,37.3 222.34,207.83 3.39,60.49 1.34,121.46 1.34,182.19 0,1275.61 -1.73,2551.22 0.95,3826.9 0.79,414.32 -15.38,397.76 -397.44,420.32 -998.69,58.84 -1969.21,265.25 -2916.95,583.1 -1467.35,492.17 -2791.93,1235.7 -3977.15,2232.73 -1243.51,1046.09 -2237.94,2290.54 -2982.97,3731.47 -555.26,1073.77 -938.9,2209.46 -1151.78,3400.99 -87.62,490.11 -140.55,983.3 -165.31,1481.46 -16.09,327.09 -46.3,653.54 -37.86,981.57 57.73,2268.3 543.43,4425.86 1670.52,6415.03 371.89,656.3 802.93,1271.43 1291.7,1848.07 1403.85,1655.85 3150.57,2832 5125.3,3694.63 1475.16,644.39 3010.73,1086.39 4591.66,1376.01 810.89,148.52 1626.51,272.35 2434.72,433.88 1837.65,367.31 3623.72,904.44 5342.12,1660.04 1159.35,509.59 2267.51,1110.29 3321.49,1811.7 1311.26,872.73 2492.61,1897.28 3547.06,3065.23 750.24,831 1426.73,1720.37 1973.32,2700.52 452.65,811.76 759.38,1678.97 922.33,2595.31 6.31,35.81 8.28,72.4 11.83,108.76 34.16,356.74 26.58,367.55 -334.57,367.71 -2126.02,0.87 -4252.19,0.39 -6378.2,0.16 -72.72,0 -145.92,0 -218.16,-6.47 -67.83,-6 -111.06,-47.96 -116.66,-116.26 -7.8,-96.78 -8.43,-193.95 -13.48,-290.96 -31.16,-601.88 -167.76,-1177.1 -452.73,-1710.51 -433.56,-811.45 -1001.68,-1514.75 -1691.74,-2125.54 -1212.59,-1073.46 -2624.02,-1782.53 -4142.16,-2303.16 -919.89,-315.57 -1863.44,-539.18 -2818.2,-718.06 -1001.6,-187.64 -1993.19,-419.29 -2987.06,-642.26 -1056.11,-237.01 -2088.32,-548.09 -3112.16,-891.58 -886.45,-297.51 -1757.21,-635.48 -2604.77,-1033.31 -1082.14,-507.78 -2088.79,-1135.77 -3040.7,-1856.66 -543.28,-411.48 -1054.06,-859.56 -1536.13,-1339.5 -231.8,-231.01 -438.76,-487.11 -656.61,-731.93 -25.08,-28 -53.63,-52.3 -90.55,-27.37 -16.64,11.2 -32.02,37.07 -32.81,56.86 -4.49,109.16 -5.76,218.48 -5.76,327.8 -0.15,1664.37 0.32,3328.82 -0.94,4993.19 0,115.94 17.19,235.59 -29.11,369.76z"/>
  <path class="fil2" d="M39597.99 39914.95c66.26,-127.77 187.09,-166.73 290.02,-227.15 1426.8,-837.94 2674.49,-1895.31 3762.93,-3135.03 1453.79,-1655.85 2499.01,-3545.96 3149.23,-5652.89 243.72,-789.67 408.25,-1595.43 530.66,-2412.95 160.58,-1075.03 182.98,-2155.35 112.23,-3233.38 -110.34,-1682.36 -498.63,-3306.74 -1151.77,-4864.48 -624.44,-1489.35 -1456.62,-2850.61 -2506.34,-4079.37 -1178.67,-1379.88 -2550.82,-2522.98 -4125.52,-3427.57 -1531.54,-879.67 -3168.55,-1464.35 -4899.25,-1792.46 -392.55,-74.46 -792.12,-112 -1188.53,-165.55 -157.27,-21.22 -182.59,-42.12 -184.56,-208.54 -4.03,-315.81 -3.95,-631.69 -0.71,-947.5 1.81,-177.31 18.14,-189.14 187.48,-172.26 1028.57,102.46 2037.91,301.61 3028.94,596.28 1061.79,315.57 2088.55,718.77 3070.44,1230.97 1253.13,653.77 2420.76,1431.85 3484.91,2368.94 1738.27,1530.68 3102.85,3339.23 4096.96,5427.07 602.51,1265.27 1040.33,2587.02 1302.11,3966.03 165.4,871.31 289.78,1746.32 300.66,2635.37 3.24,254.45 48.27,509.76 34.71,762.62 -39.68,738.25 -70.6,1476.18 -170.76,2211.67 -161.38,1184.12 -441.3,2335.82 -851.99,3454.86 -627.59,1709.8 -1489.51,3291.83 -2603.82,4736.78 -789.04,1023.22 -1677.15,1952.49 -2626.22,2824.67 -374.89,344.67 -778.71,657.72 -1167.63,987.4 -85.19,72.25 -161.85,85.19 -261.15,21.22 -480.65,-309.42 -986.94,-572.3 -1501.9,-819.49 -41.17,-19.95 -74.45,-56.71 -111.13,-85.26z"/>
  <path class="fil2" d="M33857.32 38224.16c431.44,-99.54 824.22,-176.04 1208.81,-281.5 1515.38,-415.1 2906.06,-1089.62 4158.32,-2041.22 1719.27,-1306.29 3008.44,-2952.44 3863.58,-4934.67 395.63,-917.37 655.04,-1873.94 819.09,-2861.11 158.38,-953.73 177.94,-1911.79 108.77,-2868.05 -76.27,-1055.39 -303.9,-2086.1 -664.35,-3085.42 -533.73,-1480.28 -1327.74,-2802.26 -2368.86,-3981.09 -1101.38,-1246.98 -2411.61,-2211.67 -3908.77,-2926.5 -969.03,-462.74 -1986.96,-776.73 -3043.85,-965 -155.15,-27.61 -311.16,-49.85 -466.85,-75.01 -143.63,-23.27 -172.02,-47.4 -175.34,-180.62 -4.49,-182.12 -3.7,-364.39 1.19,-546.51 3.07,-109.55 47.56,-152.38 162.55,-140.94 229.05,22.79 458.81,47.32 684.93,88.81 1345.97,246.71 2631.59,673.33 3841.18,1316.38 871.23,463.22 1679.44,1019.35 2431.09,1660.51 1025.27,874.62 1884.98,1889.16 2598.07,3029.1 852.3,1362.45 1423.1,2833.74 1739.06,4411.27 245.93,1226.55 275.9,2462.41 186.54,3698.34 -94.02,1301.8 -420.87,2558.08 -918.71,3767.83 -535.86,1302.35 -1264.96,2485.04 -2178.7,3555.98 -1490.62,1747.18 -3322.75,3002.6 -5466.67,3812.86 -164.05,61.91 -318.09,73.9 -492.71,26.97 -585.48,-157.43 -1177.81,-287.8 -1776.37,-387.97 -102.07,-17.04 -200.81,-53.64 -342,-92.44z"/>
  <path class="fil2" d="M45777.98 26311.7c-33.68,-1950.91 -410.21,-3825.24 -1216.06,-5612.1 -795.82,-1764.31 -1912.5,-3290.89 -3339.47,-4590.08 -810.57,-737.85 -1701.91,-1365.76 -2668.18,-1889.31 -1052.08,-570.17 -2156.46,-998.3 -3317.46,-1281.29 -494.93,-120.52 -994.43,-219.27 -1501.9,-272.11 -12.06,-1.34 -24.13,-1.74 -36.28,-3.31 -299.71,-39.68 -310.68,-51.51 -313.2,-365.82 -1.34,-157.82 -2.53,-315.88 2.68,-473.63 3.87,-114.68 47.88,-147.65 164.77,-132.74 661.66,84.4 1319.54,190.4 1967.87,350.27 1041.12,256.74 2041.46,628.07 2999.61,1105.56 1035.44,516.07 1998.16,1147.44 2886.03,1892.63 1276.63,1071.17 2347.64,2317.83 3209.32,3742.98 662.77,1096.33 1166.06,2263.97 1522.64,3494.54 185.75,641.39 323.54,1293.9 422.76,1953.52 50.56,335.13 68.3,675.3 99.54,1013.35 36.67,398.78 64.51,797.64 57.18,1199.1 -37.07,1999.9 -424.89,3922.89 -1222.68,5762.76 -594.07,1370.49 -1375.7,2623.46 -2353.64,3747.16 -1123.62,1291.38 -2416.03,2387.47 -3919.9,3221.32 -159.16,88.18 -320.61,172.49 -477.02,265.32 -115.78,68.78 -222.89,62.23 -346.17,14.91 -294.28,-113.18 -593.52,-213.35 -890.63,-319.35 -32.73,-11.6 -78.56,-22.72 -63.57,-68.07 9.22,-28.32 41.17,-57.18 70.11,-69.8 802.3,-353.59 1564.76,-778.79 2284.39,-1278.85 1700.5,-1182.06 3075.64,-2665.73 4118.89,-4456.62 795.99,-1366.47 1328.85,-2830.82 1623.28,-4381.06 92.6,-487.51 159.09,-980.39 186.38,-1478.78 20.03,-363.29 61.12,-725.24 50.71,-1090.5z"/>
 </g>
</svg>
